<svg xmlns="http://www.w3.org/2000/svg" viewBox="0 0 180 250">
  <defs>
    <linearGradient id="mist" x1="0" y1="0" x2="0" y2="1"><stop stop-color="#e3ecd6"/><stop offset=".55" stop-color="#9fbf97"/><stop offset="1" stop-color="#3c6a4b"/></linearGradient>
    <linearGradient id="stalk" x1="0" y1="0" x2="1" y2="0"><stop stop-color="#2f6b40"/><stop offset=".4" stop-color="#6aa565"/><stop offset="1" stop-color="#2a5b39"/></linearGradient>
    <linearGradient id="stalkFar" x1="0" y1="0" x2="1" y2="0"><stop stop-color="#7fa782"/><stop offset=".5" stop-color="#a9c8a2"/><stop offset="1" stop-color="#7a9f7c"/></linearGradient>
    <clipPath id="inner"><rect x="9" y="9" width="162" height="232" rx="9"/></clipPath>
    <path id="leaf" d="M0 0c10-4 24-4 34 0-10 5-24 5-34 0z"/>
  </defs>
  <rect width="180" height="250" rx="15" fill="#2f5a3f"/>
  <g clip-path="url(#inner)">
    <rect width="180" height="250" fill="url(#mist)"/>
    <circle cx="128" cy="58" r="20" fill="#fbf6e6" opacity=".85"/>
    <g fill="url(#stalkFar)" opacity=".75">
      <rect x="30" y="0" width="7" height="250" rx="3"/><rect x="146" y="0" width="6" height="250" rx="3"/><rect x="104" y="0" width="5" height="250" rx="2.5"/>
    </g>
    <g fill="#6f9774" opacity=".75"><rect x="29" y="70" width="9" height="2"/><rect x="29" y="150" width="9" height="2"/><rect x="145" y="96" width="8" height="2"/><rect x="103" y="130" width="7" height="2"/></g>
    <rect x="52" y="0" width="14" height="250" rx="6" fill="url(#stalk)"/>
    <rect x="82" y="0" width="12" height="250" rx="6" fill="url(#stalk)"/>
    <rect x="120" y="0" width="11" height="250" rx="5" fill="url(#stalk)"/>
    <g fill="#1f4a2c">
      <rect x="50" y="48" width="18" height="3.5" rx="1.7"/><rect x="50" y="112" width="18" height="3.5" rx="1.7"/><rect x="50" y="176" width="18" height="3.5" rx="1.7"/>
      <rect x="80" y="78" width="16" height="3.5" rx="1.7"/><rect x="80" y="146" width="16" height="3.5" rx="1.7"/><rect x="80" y="210" width="16" height="3.5" rx="1.7"/>
      <rect x="118" y="36" width="15" height="3.5" rx="1.7"/><rect x="118" y="102" width="15" height="3.5" rx="1.7"/><rect x="118" y="170" width="15" height="3.5" rx="1.7"/>
    </g>
    <g fill="#2c6340">
      <use href="#leaf" transform="translate(66 112) rotate(-28)"/><use href="#leaf" transform="translate(66 114) rotate(-8) scale(.9)"/><use href="#leaf" transform="translate(66 116) rotate(14) scale(.8)"/>
      <use href="#leaf" transform="translate(82 78) rotate(208)"/><use href="#leaf" transform="translate(82 80) rotate(188) scale(.85)"/>
      <use href="#leaf" transform="translate(131 170) rotate(-24)"/><use href="#leaf" transform="translate(131 172) rotate(-2) scale(.85)"/>
      <use href="#leaf" transform="translate(120 102) rotate(200) scale(.9)"/><use href="#leaf" transform="translate(120 104) rotate(222) scale(.8)"/>
    </g>
    <rect y="196" width="180" height="54" fill="#e3ecd6" opacity=".22"/>
  </g>
  <rect x="9" y="9" width="162" height="232" rx="9" fill="none" stroke="#e1dca8" stroke-width="3.5"/>
  <rect x="17" y="17" width="146" height="216" rx="6" fill="none" stroke="#fbf6e6" stroke-opacity=".5" stroke-width="1.2"/>
</svg>
