<svg xmlns="http://www.w3.org/2000/svg" viewBox="0 0 1200 640" preserveAspectRatio="xMidYMid slice">
  <defs>
    <radialGradient id="felt" cx=".5" cy=".46" r=".72"><stop stop-color="#28628f"/><stop offset=".55" stop-color="#1b4a72"/><stop offset="1" stop-color="#061a33"/></radialGradient>
    <radialGradient id="shade" cx=".5" cy=".5" r=".7"><stop offset=".55" stop-color="#000" stop-opacity="0"/><stop offset="1" stop-color="#000" stop-opacity=".42"/></radialGradient>
    <pattern id="grain" width="28" height="28" patternUnits="userSpaceOnUse"><circle cx="26.0" cy="15.7" r="1.07" fill="#000" opacity="0.086"/><circle cx="12.3" cy="24.5" r="0.63" fill="#fff" opacity="0.068"/><circle cx="24.8" cy="24.8" r="1.17" fill="#000" opacity="0.067"/><circle cx="6.3" cy="25.5" r="0.59" fill="#fff" opacity="0.063"/><circle cx="11.0" cy="10.7" r="0.79" fill="#fff" opacity="0.048"/><circle cx="26.5" cy="8.8" r="1.12" fill="#000" opacity="0.087"/><circle cx="7.2" cy="14.5" r="0.53" fill="#fff" opacity="0.039"/><circle cx="6.6" cy="6.7" r="1.05" fill="#000" opacity="0.054"/><circle cx="8.9" cy="20.3" r="0.59" fill="#fff" opacity="0.039"/><circle cx="19.3" cy="17.0" r="0.66" fill="#000" opacity="0.104"/><circle cx="15.1" cy="18.9" r="0.67" fill="#fff" opacity="0.050"/><circle cx="23.9" cy="0.7" r="1.15" fill="#000" opacity="0.057"/><circle cx="13.7" cy="12.1" r="0.88" fill="#fff" opacity="0.044"/><circle cx="18.6" cy="27.3" r="0.52" fill="#fff" opacity="0.049"/><circle cx="12.9" cy="22.9" r="0.52" fill="#fff" opacity="0.037"/><circle cx="4.9" cy="16.0" r="1.20" fill="#000" opacity="0.076"/><circle cx="6.7" cy="19.9" r="0.89" fill="#fff" opacity="0.046"/><circle cx="1.4" cy="2.2" r="0.52" fill="#fff" opacity="0.074"/><circle cx="16.5" cy="2.5" r="0.94" fill="#fff" opacity="0.074"/><circle cx="26.8" cy="6.5" r="0.96" fill="#fff" opacity="0.038"/><circle cx="25.9" cy="0.2" r="0.94" fill="#fff" opacity="0.047"/><circle cx="20.1" cy="0.3" r="1.17" fill="#000" opacity="0.088"/><circle cx="14.9" cy="19.0" r="0.56" fill="#000" opacity="0.085"/><circle cx="2.9" cy="24.3" r="0.88" fill="#fff" opacity="0.035"/><circle cx="0.1" cy="10.5" r="0.95" fill="#000" opacity="0.095"/><circle cx="4.9" cy="4.6" r="0.72" fill="#000" opacity="0.055"/><circle cx="18.9" cy="5.9" r="1.17" fill="#fff" opacity="0.063"/><circle cx="18.6" cy="13.5" r="1.06" fill="#000" opacity="0.051"/><circle cx="2.6" cy="18.3" r="1.01" fill="#000" opacity="0.103"/><circle cx="14.8" cy="19.0" r="1.16" fill="#fff" opacity="0.038"/><circle cx="10.1" cy="15.7" r="1.02" fill="#000" opacity="0.080"/><circle cx="4.1" cy="10.8" r="0.99" fill="#000" opacity="0.091"/><circle cx="13.9" cy="27.9" r="0.90" fill="#000" opacity="0.095"/><circle cx="6.8" cy="10.7" r="1.07" fill="#fff" opacity="0.071"/><circle cx="20.0" cy="19.1" r="0.80" fill="#000" opacity="0.100"/><circle cx="24.8" cy="11.5" r="1.17" fill="#000" opacity="0.101"/><circle cx="4.3" cy="12.0" r="0.80" fill="#000" opacity="0.066"/><circle cx="18.4" cy="12.6" r="0.97" fill="#000" opacity="0.079"/><circle cx="16.9" cy="10.4" r="0.94" fill="#000" opacity="0.088"/><circle cx="20.1" cy="2.5" r="0.80" fill="#000" opacity="0.051"/><circle cx="26.6" cy="15.6" r="1.11" fill="#000" opacity="0.108"/><circle cx="15.3" cy="7.2" r="0.86" fill="#fff" opacity="0.065"/><circle cx="11.1" cy="4.0" r="0.65" fill="#000" opacity="0.103"/><circle cx="7.8" cy="21.5" r="0.64" fill="#000" opacity="0.065"/></pattern>
    <pattern id="weave" width="6" height="6" patternUnits="userSpaceOnUse" patternTransform="rotate(35)"><path d="M0 3h6" stroke="#fff" stroke-opacity=".022" stroke-width="1"/></pattern>
  </defs>
  <rect width="1200" height="640" fill="url(#felt)"/>
  <rect width="1200" height="640" fill="url(#weave)"/>
  <rect width="1200" height="640" fill="url(#grain)"/>
  <g fill="none" stroke="#d6e8ff">
    <circle cx="600" cy="320" r="150" stroke-opacity=".16" stroke-width="3"/>
    <circle cx="600" cy="320" r="138" stroke-opacity=".12" stroke-width="1.5" stroke-dasharray="2 7"/>
    <circle cx="600" cy="320" r="172" stroke-opacity=".07" stroke-width="1.5"/>
  </g>
  <g fill="#d6e8ff" opacity=".12">
    <g transform="translate(600 320) scale(1 1)"><path d="M0 0c14-9 30-9 40 0-10 9-26 9-40 0z" transform="translate(-97.7 43.6) rotate(-290) scale(.62)"/><path d="M0 0c14-9 30-9 40 0-10 9-26 9-40 0z" transform="translate(-82.0 72.0) rotate(-308) scale(.62)"/><path d="M0 0c14-9 30-9 40 0-10 9-26 9-40 0z" transform="translate(-58.2 94.2) rotate(-326) scale(.62)"/><path d="M0 0c14-9 30-9 40 0-10 9-26 9-40 0z" transform="translate(-28.7 108.0) rotate(-344) scale(.62)"/><path d="M0 0c14-9 30-9 40 0-10 9-26 9-40 0z" transform="translate(3.6 111.9) rotate(-362) scale(.62)"/><path d="M0 0c14-9 30-9 40 0-10 9-26 9-40 0z" transform="translate(35.6 105.7) rotate(-380) scale(.62)"/><path d="M0 0c14-9 30-9 40 0-10 9-26 9-40 0z" transform="translate(64.0 90.0) rotate(-398) scale(.62)"/></g><g transform="translate(600 320) scale(-1 1)"><path d="M0 0c14-9 30-9 40 0-10 9-26 9-40 0z" transform="translate(-97.7 43.6) rotate(-290) scale(.62)"/><path d="M0 0c14-9 30-9 40 0-10 9-26 9-40 0z" transform="translate(-82.0 72.0) rotate(-308) scale(.62)"/><path d="M0 0c14-9 30-9 40 0-10 9-26 9-40 0z" transform="translate(-58.2 94.2) rotate(-326) scale(.62)"/><path d="M0 0c14-9 30-9 40 0-10 9-26 9-40 0z" transform="translate(-28.7 108.0) rotate(-344) scale(.62)"/><path d="M0 0c14-9 30-9 40 0-10 9-26 9-40 0z" transform="translate(3.6 111.9) rotate(-362) scale(.62)"/><path d="M0 0c14-9 30-9 40 0-10 9-26 9-40 0z" transform="translate(35.6 105.7) rotate(-380) scale(.62)"/><path d="M0 0c14-9 30-9 40 0-10 9-26 9-40 0z" transform="translate(64.0 90.0) rotate(-398) scale(.62)"/></g>
    <path d="M0-72C22-36 78-10 58 32 45 60 16 55 6 39c3 22 13 36 30 42H-36c17-6 27-20 30-42-10 16-39 21-52-7-20-42 36-68 58-104z" transform="translate(600 318) scale(1.05)"/>
    <path d="M600 164l7 7-7 7-7-7zM600 462l7 7-7 7-7-7zM444 320l7 7-7 7-7-7zM756 320l7 7-7 7-7-7z"/>
  </g>
  <rect width="1200" height="640" fill="url(#shade)"/>
</svg>
