<svg xmlns="http://www.w3.org/2000/svg" viewBox="0 0 300 100" preserveAspectRatio="xMidYMid slice">
  <defs>
    <linearGradient id="bg" x2="1" y2="1"><stop stop-color="#0b0d2a"/><stop offset=".6" stop-color="#1d1246"/><stop offset="1" stop-color="#0a1330"/></linearGradient>
    <radialGradient id="n1"><stop stop-color="#9a5cf0" stop-opacity=".75"/><stop offset="1" stop-color="#9a5cf0" stop-opacity="0"/></radialGradient>
    <radialGradient id="n2"><stop stop-color="#e05fb4" stop-opacity=".6"/><stop offset="1" stop-color="#e05fb4" stop-opacity="0"/></radialGradient>
    <radialGradient id="n3"><stop stop-color="#44c3e0" stop-opacity=".5"/><stop offset="1" stop-color="#44c3e0" stop-opacity="0"/></radialGradient></defs>

  <rect width="300" height="100" fill="url(#bg)"/>
  <ellipse cx="90" cy="40" rx="90" ry="40" fill="url(#n1)"/><ellipse cx="200" cy="62" rx="80" ry="36" fill="url(#n2)"/><ellipse cx="150" cy="30" rx="60" ry="24" fill="url(#n3)"/>
  <g fill="#fff"><circle cx="72" cy="91" r="1.1" opacity="0.96"/><circle cx="15" cy="86" r="0.9" opacity="0.43"/><circle cx="21" cy="98" r="1.5" opacity="0.72"/><circle cx="136" cy="55" r="1.1" opacity="0.87"/><circle cx="234" cy="42" r="1.0" opacity="0.91"/><circle cx="109" cy="48" r="0.6" opacity="0.85"/><circle cx="250" cy="36" r="0.7" opacity="0.99"/><circle cx="37" cy="45" r="1.0" opacity="0.46"/><circle cx="34" cy="62" r="1.3" opacity="0.45"/><circle cx="182" cy="93" r="0.8" opacity="0.75"/><circle cx="106" cy="31" r="1.0" opacity="0.83"/><circle cx="93" cy="16" r="1.4" opacity="0.78"/><circle cx="114" cy="100" r="1.0" opacity="0.51"/><circle cx="76" cy="92" r="1.1" opacity="0.70"/><circle cx="52" cy="43" r="0.7" opacity="0.40"/><circle cx="207" cy="76" r="0.6" opacity="0.73"/><circle cx="223" cy="88" r="0.9" opacity="0.64"/><circle cx="192" cy="83" r="1.0" opacity="0.69"/><circle cx="236" cy="96" r="0.8" opacity="0.93"/><circle cx="62" cy="28" r="1.4" opacity="0.83"/><circle cx="63" cy="5" r="0.8" opacity="0.90"/><circle cx="228" cy="21" r="1.0" opacity="0.85"/><circle cx="125" cy="33" r="0.9" opacity="0.52"/><circle cx="261" cy="20" r="1.2" opacity="0.82"/><circle cx="132" cy="27" r="1.0" opacity="0.60"/><circle cx="30" cy="39" r="1.0" opacity="0.85"/></g>
  <path d="M232 20c1 4 2 5 6 6-4 1-5 2-6 6-1-4-2-5-6-6 4-1 5-2 6-6zM66 72c1 3 1.5 4 5 5-3.5 1-4 1.5-5 5-1-3.5-1.5-4-5-5 3.5-1 4-2 5-5z" fill="#fff6e0"/>
</svg>
