<svg xmlns="http://www.w3.org/2000/svg" viewBox="0 0 1200 640" preserveAspectRatio="xMidYMid slice">
  <defs>
    <radialGradient id="felt" cx=".5" cy=".46" r=".72"><stop stop-color="#83352c"/><stop offset=".55" stop-color="#652520"/><stop offset="1" stop-color="#2a0a09"/></radialGradient>
    <radialGradient id="shade" cx=".5" cy=".5" r=".7"><stop offset=".55" stop-color="#000" stop-opacity="0"/><stop offset="1" stop-color="#000" stop-opacity=".42"/></radialGradient>
    <pattern id="grain" width="28" height="28" patternUnits="userSpaceOnUse"><circle cx="8.7" cy="16.8" r="0.95" fill="#fff" opacity="0.053"/><circle cx="8.9" cy="22.2" r="0.62" fill="#000" opacity="0.093"/><circle cx="23.1" cy="13.8" r="0.53" fill="#000" opacity="0.062"/><circle cx="16.6" cy="1.7" r="0.79" fill="#000" opacity="0.070"/><circle cx="14.3" cy="15.8" r="0.75" fill="#fff" opacity="0.060"/><circle cx="11.3" cy="24.7" r="0.96" fill="#000" opacity="0.080"/><circle cx="19.7" cy="10.2" r="0.92" fill="#fff" opacity="0.069"/><circle cx="10.2" cy="4.0" r="0.50" fill="#fff" opacity="0.071"/><circle cx="4.2" cy="0.3" r="0.75" fill="#000" opacity="0.053"/><circle cx="23.3" cy="20.3" r="0.65" fill="#000" opacity="0.107"/><circle cx="13.6" cy="11.0" r="0.91" fill="#fff" opacity="0.070"/><circle cx="24.7" cy="13.3" r="0.82" fill="#fff" opacity="0.067"/><circle cx="18.0" cy="24.0" r="1.05" fill="#000" opacity="0.056"/><circle cx="19.0" cy="26.0" r="0.74" fill="#fff" opacity="0.074"/><circle cx="6.7" cy="16.5" r="0.51" fill="#fff" opacity="0.036"/><circle cx="17.6" cy="0.9" r="0.67" fill="#000" opacity="0.080"/><circle cx="1.7" cy="22.3" r="0.55" fill="#000" opacity="0.079"/><circle cx="1.6" cy="9.9" r="0.70" fill="#000" opacity="0.084"/><circle cx="15.7" cy="18.1" r="0.83" fill="#000" opacity="0.079"/><circle cx="7.7" cy="3.4" r="0.60" fill="#fff" opacity="0.059"/><circle cx="15.8" cy="20.7" r="1.03" fill="#fff" opacity="0.055"/><circle cx="9.3" cy="15.3" r="0.99" fill="#000" opacity="0.054"/><circle cx="11.4" cy="4.1" r="0.67" fill="#fff" opacity="0.049"/><circle cx="15.3" cy="27.1" r="1.00" fill="#000" opacity="0.094"/><circle cx="11.2" cy="26.7" r="0.87" fill="#000" opacity="0.097"/><circle cx="19.1" cy="20.6" r="0.74" fill="#fff" opacity="0.058"/><circle cx="1.8" cy="6.4" r="0.73" fill="#000" opacity="0.078"/><circle cx="10.8" cy="4.6" r="0.91" fill="#000" opacity="0.079"/><circle cx="26.0" cy="15.2" r="0.95" fill="#fff" opacity="0.070"/><circle cx="25.0" cy="23.0" r="1.04" fill="#fff" opacity="0.058"/><circle cx="25.1" cy="2.4" r="0.90" fill="#fff" opacity="0.042"/><circle cx="24.9" cy="14.4" r="0.62" fill="#000" opacity="0.081"/><circle cx="14.9" cy="8.1" r="0.67" fill="#000" opacity="0.052"/><circle cx="18.0" cy="26.2" r="0.84" fill="#000" opacity="0.060"/><circle cx="22.6" cy="24.3" r="0.90" fill="#fff" opacity="0.048"/><circle cx="27.0" cy="0.2" r="1.03" fill="#fff" opacity="0.048"/><circle cx="9.1" cy="0.1" r="1.12" fill="#fff" opacity="0.052"/><circle cx="19.5" cy="14.8" r="1.17" fill="#fff" opacity="0.042"/><circle cx="14.0" cy="22.1" r="1.20" fill="#000" opacity="0.055"/><circle cx="19.6" cy="27.1" r="0.63" fill="#fff" opacity="0.043"/><circle cx="0.6" cy="24.6" r="0.91" fill="#fff" opacity="0.056"/><circle cx="20.6" cy="2.1" r="0.89" fill="#000" opacity="0.054"/><circle cx="27.3" cy="16.0" r="0.77" fill="#000" opacity="0.052"/><circle cx="23.2" cy="17.2" r="0.95" fill="#fff" opacity="0.045"/></pattern>
    <pattern id="weave" width="6" height="6" patternUnits="userSpaceOnUse" patternTransform="rotate(35)"><path d="M0 3h6" stroke="#fff" stroke-opacity=".022" stroke-width="1"/></pattern>
  </defs>
  <rect width="1200" height="640" fill="url(#felt)"/>
  <rect width="1200" height="640" fill="url(#weave)"/>
  <rect width="1200" height="640" fill="url(#grain)"/>
  <g fill="none" stroke="#ffd48f">
    <circle cx="600" cy="320" r="150" stroke-opacity=".16" stroke-width="3"/>
    <circle cx="600" cy="320" r="138" stroke-opacity=".12" stroke-width="1.5" stroke-dasharray="2 7"/>
    <circle cx="600" cy="320" r="172" stroke-opacity=".07" stroke-width="1.5"/>
  </g>
  <g fill="#ffd48f" opacity=".12">
    <g transform="translate(600 320) scale(1 1)"><path d="M0 0c14-9 30-9 40 0-10 9-26 9-40 0z" transform="translate(-97.7 43.6) rotate(-290) scale(.62)"/><path d="M0 0c14-9 30-9 40 0-10 9-26 9-40 0z" transform="translate(-82.0 72.0) rotate(-308) scale(.62)"/><path d="M0 0c14-9 30-9 40 0-10 9-26 9-40 0z" transform="translate(-58.2 94.2) rotate(-326) scale(.62)"/><path d="M0 0c14-9 30-9 40 0-10 9-26 9-40 0z" transform="translate(-28.7 108.0) rotate(-344) scale(.62)"/><path d="M0 0c14-9 30-9 40 0-10 9-26 9-40 0z" transform="translate(3.6 111.9) rotate(-362) scale(.62)"/><path d="M0 0c14-9 30-9 40 0-10 9-26 9-40 0z" transform="translate(35.6 105.7) rotate(-380) scale(.62)"/><path d="M0 0c14-9 30-9 40 0-10 9-26 9-40 0z" transform="translate(64.0 90.0) rotate(-398) scale(.62)"/></g><g transform="translate(600 320) scale(-1 1)"><path d="M0 0c14-9 30-9 40 0-10 9-26 9-40 0z" transform="translate(-97.7 43.6) rotate(-290) scale(.62)"/><path d="M0 0c14-9 30-9 40 0-10 9-26 9-40 0z" transform="translate(-82.0 72.0) rotate(-308) scale(.62)"/><path d="M0 0c14-9 30-9 40 0-10 9-26 9-40 0z" transform="translate(-58.2 94.2) rotate(-326) scale(.62)"/><path d="M0 0c14-9 30-9 40 0-10 9-26 9-40 0z" transform="translate(-28.7 108.0) rotate(-344) scale(.62)"/><path d="M0 0c14-9 30-9 40 0-10 9-26 9-40 0z" transform="translate(3.6 111.9) rotate(-362) scale(.62)"/><path d="M0 0c14-9 30-9 40 0-10 9-26 9-40 0z" transform="translate(35.6 105.7) rotate(-380) scale(.62)"/><path d="M0 0c14-9 30-9 40 0-10 9-26 9-40 0z" transform="translate(64.0 90.0) rotate(-398) scale(.62)"/></g>
    <path d="M0-72C22-36 78-10 58 32 45 60 16 55 6 39c3 22 13 36 30 42H-36c17-6 27-20 30-42-10 16-39 21-52-7-20-42 36-68 58-104z" transform="translate(600 318) scale(1.05)"/>
    <path d="M600 164l7 7-7 7-7-7zM600 462l7 7-7 7-7-7zM444 320l7 7-7 7-7-7zM756 320l7 7-7 7-7-7z"/>
  </g>
  <rect width="1200" height="640" fill="url(#shade)"/>
</svg>
