<svg xmlns="http://www.w3.org/2000/svg" viewBox="0 0 1200 640" preserveAspectRatio="xMidYMid slice">
  <defs>
    <radialGradient id="felt" cx=".5" cy=".46" r=".72"><stop stop-color="#843843"/><stop offset=".55" stop-color="#652932"/><stop offset="1" stop-color="#1f080b"/></radialGradient>
    <radialGradient id="shade" cx=".5" cy=".5" r=".7"><stop offset=".55" stop-color="#000" stop-opacity="0"/><stop offset="1" stop-color="#000" stop-opacity=".42"/></radialGradient>
    <pattern id="grain" width="28" height="28" patternUnits="userSpaceOnUse"><circle cx="11.2" cy="11.2" r="0.83" fill="#fff" opacity="0.041"/><circle cx="26.1" cy="5.6" r="0.67" fill="#000" opacity="0.071"/><circle cx="3.7" cy="12.9" r="0.97" fill="#fff" opacity="0.058"/><circle cx="21.1" cy="8.8" r="1.20" fill="#000" opacity="0.065"/><circle cx="26.0" cy="18.3" r="0.96" fill="#fff" opacity="0.040"/><circle cx="3.2" cy="1.2" r="1.05" fill="#fff" opacity="0.038"/><circle cx="13.3" cy="4.0" r="1.08" fill="#000" opacity="0.052"/><circle cx="20.4" cy="17.4" r="1.14" fill="#000" opacity="0.089"/><circle cx="27.6" cy="16.3" r="0.63" fill="#000" opacity="0.066"/><circle cx="3.5" cy="3.8" r="0.70" fill="#fff" opacity="0.062"/><circle cx="20.7" cy="22.2" r="1.12" fill="#000" opacity="0.075"/><circle cx="20.8" cy="6.4" r="1.10" fill="#000" opacity="0.072"/><circle cx="24.2" cy="20.2" r="0.94" fill="#000" opacity="0.097"/><circle cx="16.7" cy="4.8" r="1.04" fill="#000" opacity="0.100"/><circle cx="9.9" cy="20.6" r="0.58" fill="#fff" opacity="0.043"/><circle cx="9.8" cy="20.6" r="1.20" fill="#000" opacity="0.062"/><circle cx="26.6" cy="10.5" r="0.87" fill="#fff" opacity="0.054"/><circle cx="0.8" cy="27.6" r="1.19" fill="#fff" opacity="0.057"/><circle cx="19.9" cy="24.4" r="0.70" fill="#000" opacity="0.107"/><circle cx="19.6" cy="19.0" r="1.00" fill="#000" opacity="0.109"/><circle cx="10.0" cy="2.4" r="0.57" fill="#fff" opacity="0.057"/><circle cx="7.6" cy="24.2" r="1.19" fill="#fff" opacity="0.071"/><circle cx="1.0" cy="22.6" r="0.81" fill="#000" opacity="0.082"/><circle cx="8.9" cy="13.0" r="1.13" fill="#fff" opacity="0.037"/><circle cx="12.1" cy="1.8" r="0.61" fill="#000" opacity="0.087"/><circle cx="4.0" cy="24.3" r="0.67" fill="#000" opacity="0.060"/><circle cx="3.6" cy="4.1" r="0.82" fill="#000" opacity="0.087"/><circle cx="21.9" cy="21.1" r="0.98" fill="#fff" opacity="0.041"/><circle cx="21.0" cy="3.0" r="0.54" fill="#fff" opacity="0.074"/><circle cx="1.9" cy="3.0" r="0.96" fill="#fff" opacity="0.040"/><circle cx="5.9" cy="13.1" r="0.81" fill="#000" opacity="0.097"/><circle cx="5.0" cy="24.3" r="1.06" fill="#000" opacity="0.067"/><circle cx="10.1" cy="23.1" r="1.11" fill="#000" opacity="0.086"/><circle cx="18.2" cy="4.5" r="0.58" fill="#fff" opacity="0.069"/><circle cx="9.3" cy="26.4" r="1.14" fill="#000" opacity="0.099"/><circle cx="16.2" cy="0.8" r="1.03" fill="#000" opacity="0.105"/><circle cx="12.7" cy="3.5" r="0.90" fill="#000" opacity="0.085"/><circle cx="13.9" cy="3.6" r="0.87" fill="#fff" opacity="0.065"/><circle cx="0.4" cy="20.0" r="0.63" fill="#fff" opacity="0.068"/><circle cx="21.8" cy="16.1" r="0.77" fill="#000" opacity="0.065"/><circle cx="18.4" cy="7.4" r="1.19" fill="#000" opacity="0.093"/><circle cx="22.1" cy="27.5" r="0.71" fill="#000" opacity="0.080"/><circle cx="2.6" cy="11.9" r="0.84" fill="#fff" opacity="0.048"/><circle cx="2.5" cy="10.7" r="0.82" fill="#000" opacity="0.068"/></pattern>
    <pattern id="weave" width="6" height="6" patternUnits="userSpaceOnUse" patternTransform="rotate(35)"><path d="M0 3h6" stroke="#fff" stroke-opacity=".022" stroke-width="1"/></pattern>
  </defs>
  <rect width="1200" height="640" fill="url(#felt)"/>
  <rect width="1200" height="640" fill="url(#weave)"/>
  <rect width="1200" height="640" fill="url(#grain)"/>
  <g fill="none" stroke="#f6c79e">
    <circle cx="600" cy="320" r="150" stroke-opacity=".16" stroke-width="3"/>
    <circle cx="600" cy="320" r="138" stroke-opacity=".12" stroke-width="1.5" stroke-dasharray="2 7"/>
    <circle cx="600" cy="320" r="172" stroke-opacity=".07" stroke-width="1.5"/>
  </g>
  <g fill="#f6c79e" opacity=".12">
    <g transform="translate(600 320) scale(1 1)"><path d="M0 0c14-9 30-9 40 0-10 9-26 9-40 0z" transform="translate(-97.7 43.6) rotate(-290) scale(.62)"/><path d="M0 0c14-9 30-9 40 0-10 9-26 9-40 0z" transform="translate(-82.0 72.0) rotate(-308) scale(.62)"/><path d="M0 0c14-9 30-9 40 0-10 9-26 9-40 0z" transform="translate(-58.2 94.2) rotate(-326) scale(.62)"/><path d="M0 0c14-9 30-9 40 0-10 9-26 9-40 0z" transform="translate(-28.7 108.0) rotate(-344) scale(.62)"/><path d="M0 0c14-9 30-9 40 0-10 9-26 9-40 0z" transform="translate(3.6 111.9) rotate(-362) scale(.62)"/><path d="M0 0c14-9 30-9 40 0-10 9-26 9-40 0z" transform="translate(35.6 105.7) rotate(-380) scale(.62)"/><path d="M0 0c14-9 30-9 40 0-10 9-26 9-40 0z" transform="translate(64.0 90.0) rotate(-398) scale(.62)"/></g><g transform="translate(600 320) scale(-1 1)"><path d="M0 0c14-9 30-9 40 0-10 9-26 9-40 0z" transform="translate(-97.7 43.6) rotate(-290) scale(.62)"/><path d="M0 0c14-9 30-9 40 0-10 9-26 9-40 0z" transform="translate(-82.0 72.0) rotate(-308) scale(.62)"/><path d="M0 0c14-9 30-9 40 0-10 9-26 9-40 0z" transform="translate(-58.2 94.2) rotate(-326) scale(.62)"/><path d="M0 0c14-9 30-9 40 0-10 9-26 9-40 0z" transform="translate(-28.7 108.0) rotate(-344) scale(.62)"/><path d="M0 0c14-9 30-9 40 0-10 9-26 9-40 0z" transform="translate(3.6 111.9) rotate(-362) scale(.62)"/><path d="M0 0c14-9 30-9 40 0-10 9-26 9-40 0z" transform="translate(35.6 105.7) rotate(-380) scale(.62)"/><path d="M0 0c14-9 30-9 40 0-10 9-26 9-40 0z" transform="translate(64.0 90.0) rotate(-398) scale(.62)"/></g>
    <path d="M0-72C22-36 78-10 58 32 45 60 16 55 6 39c3 22 13 36 30 42H-36c17-6 27-20 30-42-10 16-39 21-52-7-20-42 36-68 58-104z" transform="translate(600 318) scale(1.05)"/>
    <path d="M600 164l7 7-7 7-7-7zM600 462l7 7-7 7-7-7zM444 320l7 7-7 7-7-7zM756 320l7 7-7 7-7-7z"/>
  </g>
  <rect width="1200" height="640" fill="url(#shade)"/>
</svg>
